<svg version="1" xmlns="http://www.w3.org/2000/svg" width="600" height="600" viewBox="0 0 450.000000 450.000000"><path d="M212.7.6c-.1.1-3.6.4-7.7.8-4.1.3-8.6.8-10 1-1.4.3-4.3.7-6.5.9-2.2.3-5.8 1-8 1.5-2.2.6-5.1 1.3-6.5 1.6-8 1.4-28.2 7.9-37.1 11.9-10.1 4.6-16.9 7.9-21.4 10.5-2.7 1.6-6.8 3.9-9 5.2-2.2 1.2-4.2 2.5-4.5 2.9-.3.3-3.2 2.4-6.4 4.6C82.3 50.4 67.2 64 54.7 78.4c-8.2 9.4-11.9 14.4-23.6 32.6-2.9 4.6-12.1 23.3-12.1 24.6 0 .8-.3 1.4-.8 1.4-.4 0-1.2 1.5-1.8 3.2-7.9 23.2-12.6 40.5-13.9 51.3-.2 1.6-.7 5.9-1.1 9.5-1.1 8.1-1.1 38.3-.2 47 1.4 12.4 1.9 15.6 3.9 24.8 4 18.3 10 35.3 18.8 53.2 4.5 9 14.6 25.9 16.1 27 .4.3 1.3 1.6 2 2.9.7 1.4 1.7 3 2.2 3.5 3.7 4.6 5.3 6.5 7.6 9.5 6.2 8 27.3 28.3 35.7 34.3.5.4 2.4 1.8 4 3.1 5.9 4.5 15.1 10.4 21 13.6 3.3 1.8 6.4 3.7 6.9 4.2 2.2 2.1 4.7.4 14.3-9.9 5.5-5.9 11.7-12.5 13.8-14.7 2.1-2.2 9.9-10.5 17.4-18.5 23.9-25.4 25.8-27.4 29.6-31.5 2.1-2.2 9.1-9.6 15.5-16.5 6.5-6.9 13.2-14.1 15-16 1.8-1.9 8.8-9.4 15.5-16.5 6.8-7.2 13.7-14.6 15.5-16.5 10.3-11.2 32.3-34.1 51.2-53.2 11.9-12 22.1-22.4 22.6-23.1.9-1-12.6-1.2-66-1.2-36.8 0-67.2-.3-67.4-.6-.2-.3 16.8-17.8 37.8-38.8l38.2-38.1h40.1l-24 24c-17 17-23.4 24-22 24.1h68.4l66.4.1-51.4 51.2c-28.3 28.1-58.1 57.4-66.3 65.1-8.2 7.7-17.2 16.2-20 18.9-2.8 2.6-9.6 9-15.1 14.1s-12.3 11.5-15.1 14.2c-10.4 9.9-28.7 27.1-54.3 51.3-20.7 19.4-30.6 28.8-36.7 34.6-4 3.9-5 5.4-4.2 6.2.7.7 1.8 1.2 2.6 1.2s2.8.7 4.5 1.4c5.7 2.6 27.1 8.9 34.7 10.2 1.4.3 5 .9 8 1.5 13.6 2.5 46.9 3.3 62.5 1.6 24.7-2.8 52.5-11.1 74.7-22.2 8.6-4.3 20.8-11.3 21.8-12.6.3-.3 1.6-1.2 2.9-1.9 1.4-.7 3-1.7 3.5-2.1.6-.5 4.5-3.5 8.6-6.6 18.7-14.3 35.8-32.4 48.4-51.3 3.1-4.7 6-9 6.4-9.6 9-13 22.3-45.2 26.8-64.6 1.3-5.6 2.2-10.8 3.9-20.8 3.1-19.5 2.4-51.9-1.6-72.5-.5-2.8-1.1-5.9-1.3-7-.2-1.1-1.2-4.9-2.1-8.5l-2-8c-1-4.6-8.3-23.1-13.4-33.6-5-10.4-15.4-28.3-19-32.6-.6-.7-3.9-4.9-7.3-9.3-10.8-13.9-22-24.8-41.6-40.6-3.4-2.7-14.3-9.9-15.1-9.9-.5 0-1.1-.4-1.3-.8-.1-.5-3.8-2.8-8.2-5.2l-7.9-4.3-5.9 6.4c-3.3 3.5-11.5 12.2-18.1 19.3-6.7 7-13.8 14.5-15.7 16.6-1.9 2-9.1 9.7-16 17-6.9 7.3-14.3 15.2-16.5 17.6-5.6 5.9-25.4 27-29 30.8-1.6 1.8-9.1 9.7-16.5 17.6-7.4 7.9-15.2 16.2-17.4 18.4-2.1 2.3-8.4 9-14 15-5.5 6-20.9 21.9-34.1 35.3-13.2 13.4-24.1 24.7-24.3 25.1-.1.4 29.4.7 65.5.7 36.2 0 66.1.1 66.5.2.6.3-4.6 5.5-23 23.2-2.9 2.8-6 5.1-7 5.1-8.3.1-41.9 0-42.7-.1-.5-.1-1.4-.1-1.8 0-2.5.4-94 .1-94.4-.3-.3-.3-1.3-.2-2.2.2-.9.4-8.3.5-16.4.2l-14.8-.5 51.8-51.5c43.9-43.7 67.2-66.3 82.8-80.6 1.7-1.5 9.7-9.1 17.9-16.8 20.5-19.3 19.6-18.5 35.1-33.1 16.1-15.2 19.1-18 36.2-34.1 7-6.7 16.2-15.3 20.3-19.2 4.1-3.8 10.3-9.7 13.8-12.9l6.3-6-6.8-2.6c-7.5-2.9-21.4-7.5-24.7-8.1-1.2-.3-4.9-1.1-8.4-1.9-3.4-.9-6.5-1.6-6.7-1.6-.3-.1-.6-.1-.7-.2-.2 0-1.6-.2-3.3-.4-1.6-.2-5-.7-7.5-1-8.3-1.3-14.5-1.7-28.3-1.9-7.6-.1-13.9-.1-14 0z"/></svg>