<?xml version="1.0" encoding="utf-8"?>
<!-- Generator: Adobe Illustrator 16.0.0, SVG Export Plug-In . SVG Version: 6.00 Build 0)  -->
<!DOCTYPE svg PUBLIC "-//W3C//DTD SVG 1.1//EN" "http://www.w3.org/Graphics/SVG/1.1/DTD/svg11.dtd">
<svg version="1.1" id="Layer_1" xmlns="http://www.w3.org/2000/svg" xmlns:xlink="http://www.w3.org/1999/xlink" x="0px" y="0px"
	 width="700px" height="300px" viewBox="0 0 700 300" enable-background="new 0 0 700 300" xml:space="preserve">
<g>
	<g>
		<path fill="#F6F5F8" d="M241.48,158.13c0-5.12,0-10.241,0-15.361c0.583-1.852,0.288-3.782,0.416-5.665
			c0.746-11.015,4.129-21.305,8.522-31.286c4.503-10.233,10.497-19.582,17.965-27.911c7.672-8.556,16.385-15.9,26.335-21.728
			c11.358-6.651,23.516-11.111,36.456-13.486c3.546-0.651,7.128-0.783,10.71-0.973c1.415-0.075,2.854,0.272,4.245-0.239
			c2.72,0,5.44,0,8.161,0c4.187,0.499,8.428,0.13,12.605,0.785c8.251,1.292,16.293,3.36,24.01,6.582
			c2.521,1.052,2.672,2.118,0.616,4.018c-11.154,10.309-22.132,20.806-33.175,31.232c-8.312,7.847-16.526,15.805-24.965,23.508
			c-22.343,20.396-43.318,42.176-64.792,63.452c-0.451,0.446-0.972,0.835-1.324,1.475c0.48,0.569,1.144,0.309,1.702,0.31
			c25.842,0.013,51.683-0.005,77.524,0.044c2.081,0.004,3.652-0.595,5.09-2.104c2.48-2.603,4.971-5.207,7.813-7.441
			c0.86-0.676,1.624-1.487,2.357-2.419c-1.015-0.4-1.902-0.222-2.766-0.223c-18.881-0.013-37.762-0.002-56.644-0.026
			c-1.236-0.001-2.989,0.532-3.548-0.706c-0.65-1.438,1.082-2.283,1.979-3.196c4.543-4.62,9.199-9.131,13.718-13.774
			c10.035-10.312,19.761-20.917,29.609-31.406c5.635-6.002,11.307-11.972,16.938-17.98c9.4-10.031,18.938-19.933,28.212-30.084
			c2.695-2.95,5.644-5.658,8.238-8.715c1.726-2.032,2.516-2.03,4.788-0.781c20.902,11.494,36.66,27.928,47.023,49.408
			c5.502,11.401,9.074,23.459,10.036,36.104c1.393,18.326-0.456,36.264-7.86,53.326c-5.363,12.361-12.473,23.541-21.894,33.288
			c-8.997,9.308-19.111,17.004-30.716,22.693c-11.295,5.537-23.157,9.478-35.73,10.436c-18.088,1.379-35.974,0.434-53.016-6.782
			c-2.96-1.254-3.201-2.201-0.863-4.331c7.862-7.157,15.496-14.559,23.236-21.847c11.756-11.069,23.381-22.283,35.264-33.211
			c22.562-20.749,43.856-42.77,65.604-64.337c0.12-0.119,0.195-0.255,0.213-0.48c-0.777-0.521-1.671-0.234-2.5-0.235
			c-19.201-0.02-38.402-0.005-57.603-0.037c-1.294-0.002-3.159,0.603-3.704-0.806c-0.525-1.358,1.208-2.246,2.126-3.172
			c5.798-5.855,11.645-11.663,17.457-17.504c0.538-0.542,1.279-0.945,1.553-2.03c-5.508,0.045-10.917-0.063-16.328,0.083
			c-0.929,0.025-1.655,0.552-2.293,1.187c-11.504,11.457-22.965,22.957-34.603,34.574c0.953,0.535,1.823,0.321,2.63,0.321
			c19.201,0.015,38.402,0.003,57.604,0.031c1.306,0.001,3.163-0.58,3.741,0.776c0.589,1.38-1.161,2.26-2.07,3.187
			c-3.979,4.054-8.046,8.021-12.028,12.071c-10.48,10.661-20.519,21.741-30.797,32.593c-6.047,6.385-12.06,12.802-18.092,19.2
			c-8.992,9.537-18.032,19.03-26.895,28.69c-2.701,2.945-5.564,5.736-8.22,8.731c-2.069,2.332-2.878,2.4-5.63,0.835
			c-7.528-4.281-14.565-9.212-21.035-15.033c-10.745-9.666-19.124-21.044-25.383-33.99c-4.693-9.707-7.833-19.935-9.368-30.633
			C241.708,164.146,241.965,161.112,241.48,158.13z"/>
		<path fill-rule="evenodd" clip-rule="evenodd" fill="#FFFFFF" d="M241.48,158.13c1.022,2.066,0.558,4.352,0.873,6.521
			c1.474,10.146,4.113,19.917,8.153,29.351c4.243,9.908,9.933,18.908,16.844,27.104c8.026,9.519,17.504,17.387,28.3,23.633
			c0.414,0.239,0.832,0.474,1.235,0.73c3.883,2.473,4.463,2.542,7.237-1.017c2.713-3.479,5.996-6.396,8.922-9.66
			c6.498-7.246,13.441-14.092,20.084-21.211c7.73-8.283,15.463-16.56,23.281-24.761c4.677-4.905,9.334-9.841,13.887-14.858
			c10.042-11.066,20.709-21.517,31.638-32.528c-22.147,0-43.793,0-65.486,0c0.049-1.157,0.772-1.498,1.248-1.974
			c11.3-11.326,22.633-22.622,33.907-33.974c1.169-1.177,2.351-1.661,4-1.635c5.516,0.088,11.033,0.033,17.32,0.033
			c-7.961,7.967-15.505,15.516-23.454,23.47c22.233,0,43.854,0,65.497,0c0.073,1.081-0.688,1.406-1.154,1.875
			c-15.373,15.399-30.648,30.899-46.193,46.124c-8.548,8.371-17.438,16.395-26.092,24.665c-5.188,4.958-10.476,9.818-15.691,14.752
			c-8.694,8.225-17.414,16.425-26.146,24.608c-3.423,3.208-6.578,6.725-10.336,9.6c-1.945,1.488-1.757,1.915,0.417,2.737
			c10.02,3.79,20.282,6.373,31.017,7.304c15.147,1.315,29.879-0.377,44.255-5.161c12.998-4.325,24.739-10.926,35.216-19.806
			c15.982-13.546,27.38-30.176,33.811-50.116c2.739-8.495,4.255-17.227,4.953-26.176c1.317-16.88-1.676-32.995-7.873-48.562
			c-4.517-11.344-11.053-21.491-19.168-30.678c-6.116-6.924-12.927-12.971-20.569-18.099c-3.171-2.127-6.517-3.991-9.728-6.061
			c-1.396-0.9-2.329-0.736-3.468,0.509c-7.753,8.479-15.577,16.891-23.593,25.125c-4.17,4.284-8.123,8.778-12.225,13.129
			c-8.538,9.059-17.173,18.026-25.642,27.149c-4.504,4.852-9.07,9.648-13.541,14.525c-7.569,8.257-15.734,15.914-23.532,23.938
			c-0.27,0.278-0.505,0.591-0.997,1.169c21.596,0,42.886,0,64.468,0c-0.802,1.965-2.225,3.039-3.5,4.054
			c-3.144,2.504-5.785,5.504-8.646,8.283c-0.854,0.831-1.705,1.274-2.94,1.273c-27.199-0.032-54.399-0.026-81.598-0.031
			c-0.157,0-0.313-0.05-0.503-0.082c-0.224-0.913,0.605-1.215,1.055-1.666c15.427-15.459,30.755-31.019,46.363-46.293
			c8.379-8.2,17.103-16.05,25.581-24.157c5.187-4.96,10.473-9.82,15.69-14.754c8.695-8.223,17.418-16.42,26.144-24.61
			c3.538-3.321,6.764-7.007,10.703-9.905c1.393-1.024,1.225-1.804-0.397-2.457c-7.864-3.165-15.979-5.387-24.362-6.654
			c-3.782-0.572-7.557-1.115-11.399-0.975c-0.346,0.013-0.703-0.293-1.056-0.451c34.562,0,69.125,0.015,103.688-0.046
			c1.644-0.003,1.967,0.323,1.966,1.966c-0.054,71.526-0.054,143.052,0,214.578c0.001,1.643-0.322,1.967-1.966,1.966
			c-71.526-0.054-143.052-0.054-214.578,0c-1.643,0.001-1.97-0.321-1.967-1.966C241.496,224.695,241.48,191.412,241.48,158.13z"/>
		<path fill-rule="evenodd" clip-rule="evenodd" fill="#FFFFFF" d="M346.129,41.48c-2.635,1.114-5.467,0.524-8.197,0.856
			c-10.432,1.267-20.438,3.96-30.111,7.982c-9.483,3.942-18.205,9.196-26.114,15.725c-8.458,6.982-15.859,14.938-21.908,24.153
			c-5.64,8.59-10.142,17.686-13.23,27.485c-2.445,7.758-4.209,15.646-4.608,23.798c-0.024,0.489-0.051,0.96-0.481,1.29
			c0-33.084,0.017-66.168-0.048-99.252c-0.003-1.735,0.363-2.086,2.088-2.083C277.723,41.496,311.926,41.48,346.129,41.48z"/>
	</g>
</g>
</svg>
